<?xml version="1.0" encoding="UTF-8"?>
<!DOCTYPE svg PUBLIC "-//W3C//DTD SVG 1.1//EN" "http://www.w3.org/Graphics/SVG/1.1/DTD/svg11.dtd">
<!-- Creator: CorelDRAW 2017 -->
<svg xmlns="http://www.w3.org/2000/svg" xml:space="preserve" width="105.833mm" height="105.833mm" version="1.1" style="shape-rendering:geometricPrecision; text-rendering:geometricPrecision; image-rendering:optimizeQuality; fill-rule:evenodd; clip-rule:evenodd"
viewBox="0 0 10583 10583"
 xmlns:xlink="http://www.w3.org/1999/xlink">
 <defs>
  <style type="text/css">
   <![CDATA[
    .str0 {stroke:white;stroke-width:35.28;stroke-dasharray:70.560000 176.400000;stroke-opacity:0.341176}
    .fil0 {fill:none}
    .fil1 {fill:white;fill-rule:nonzero;fill-opacity:0.341176}
   ]]>
  </style>
 </defs>
 <g id="Camada_x0020_1">
  <metadata id="CorelCorpID_0Corel-Layer"/>
  <path class="fil0 str0" d="M5260 423c0,0 -592,1611 -240,1631 353,20 1175,707 1175,707l1414 196c1215,21 976,-348 1723,1493 -128,256 -256,512 -385,767 -1640,1839 -1418,-2225 295,765 -1118,1745 -898,1414 -2330,1552l-1704 180 -692 804 741 2117"/>
  <g id="_771909408">
   <path class="fil1" d="M8007 2526l-6 -118 -281 297 295 -13 -8 -166zm36 164l138 -6 -145 -127 7 133zm-25 -328c5,2 9,7 9,12l7 145 186 163 106 -5c5,0 9,2 12,6 3,4 3,9 1,13l-80 177c2,2 4,4 6,6 12,14 22,21 30,21 7,0 17,-8 27,-24 4,-6 13,-8 19,-4 6,4 8,12 4,19 -10,15 -27,35 -49,36 -23,1 -41,-17 -53,-31 -12,-14 -22,-21 -30,-21 -7,0 -17,8 -27,24 -10,15 -27,35 -49,36 -23,1 -41,-17 -53,-31 -12,-14 -22,-21 -30,-21 -7,0 -17,8 -27,24 -12,18 -24,29 -37,33 -7,3 -15,-1 -18,-8 -3,-7 1,-15 8,-17 7,-2 15,-10 23,-23 10,-15 27,-35 49,-36 23,-1 41,17 53,31 12,14 22,21 30,21 7,0 17,-8 27,-24 10,-15 27,-35 49,-36 9,0 17,2 25,6l67 -150 -627 28 80 141c13,6 24,17 32,27 12,14 22,21 30,21 7,0 17,-8 27,-24 15,-22 30,-33 46,-35 13,-2 27,3 40,15 6,5 6,13 1,19 -5,6 -14,6 -20,1 -7,-6 -13,-9 -18,-8 -5,1 -14,5 -26,24 -10,15 -27,35 -49,36 -23,1 -41,-17 -53,-31 -12,-14 -22,-21 -30,-21 -7,0 -17,8 -27,24 -10,15 -27,35 -49,36 -23,1 -41,-17 -53,-31 -5,-6 -4,-14 2,-19 6,-5 15,-4 20,2 12,14 22,21 30,21 7,0 17,-8 27,-24 8,-12 21,-27 37,-33l-83 -145c-2,-4 -2,-9 0,-13 2,-4 7,-7 12,-7l26 -1 322 -341c4,-4 10,-5 15,-4z"/>
   <path class="fil1" d="M7944 2507l11 -11c5,-5 14,-6 20,-1 6,5 6,14 1,19l-11 11c-3,3 -6,4 -10,4 -4,0 -7,-1 -10,-3 -6,-5 -6,-14 -1,-19z"/>
   <path class="fil1" d="M7854 2602l65 -69c5,-6 14,-6 20,-1 6,5 6,14 1,19l-65 69c-3,3 -6,4 -10,4 -4,0 -7,-1 -10,-3 -6,-5 -6,-14 -1,-19z"/>
   <path class="fil1" d="M8129 2792c0,6 6,11 13,11 7,0 12,-6 12,-12 0,-6 -6,-11 -13,-11 -7,0 -12,6 -12,12zm52 -2c1,21 -16,39 -38,40 -22,1 -41,-15 -42,-37 -1,-21 16,-39 38,-40 22,-1 41,15 42,37z"/>
   <path class="fil1" d="M7995 2810c7,0 12,-6 12,-12 0,-6 -6,-11 -13,-11 -7,0 -12,6 -12,12 0,6 6,11 13,11zm-2 -50c22,-1 41,15 42,37 1,21 -16,39 -38,40 -22,1 -41,-15 -42,-37 -1,-21 16,-39 38,-40z"/>
   <path class="fil1" d="M7860 2805c0,-6 -6,-11 -13,-11 -7,0 -12,6 -12,12 0,6 6,11 13,11 7,0 12,-6 12,-12zm-52 2c-1,-21 16,-39 38,-40 22,-1 41,15 42,37 1,21 -16,39 -38,40 -22,1 -41,-15 -42,-37z"/>
   <path class="fil1" d="M7964 2927c-3,3 -6,5 -10,5 -3,0 -7,-1 -10,-3 -1,-1 -3,-2 -4,-3 -6,-5 -6,-14 -1,-19 5,-5 14,-6 20,-1 1,1 2,2 3,2 6,5 7,13 2,19z"/>
  </g>
  <g id="_771925888">
   <path class="fil1" d="M4585 7825l-85 -84 -7 401 212 -198 -120 -119zm140 100l100 -93 -196 -2 96 95zm-243 -229c5,-2 11,-1 15,3l105 104 252 3 76 -71c3,-3 8,-5 13,-3 5,1 8,4 10,9l62 183c3,0 6,1 9,1 19,3 31,2 37,-3 5,-5 7,-17 4,-35 -1,-7 4,-14 12,-15 8,-1 15,4 16,11 2,18 4,43 -12,58 -16,15 -43,13 -61,10 -19,-3 -31,-2 -37,3 -5,5 -7,17 -4,35 2,18 4,43 -12,58 -16,15 -43,13 -61,10 -19,-3 -31,-2 -37,3 -5,5 -7,17 -4,35 3,21 1,37 -5,48 -4,7 -12,9 -19,6 -7,-3 -9,-12 -6,-18 3,-6 4,-17 2,-32 -2,-18 -4,-43 12,-58 16,-15 43,-13 61,-10 19,3 31,2 37,-3 5,-5 7,-17 4,-35 -2,-18 -4,-43 12,-58 7,-6 15,-9 23,-11l-52 -155 -452 422 157 54c14,-4 30,-2 42,0 19,3 31,2 37,-3 5,-5 7,-17 4,-35 -4,-26 0,-44 10,-56 9,-10 22,-15 40,-15 8,0 14,6 14,13 0,7 -6,13 -14,13 -9,0 -16,2 -19,5 -3,4 -7,13 -4,34 2,18 4,43 -12,58 -16,15 -43,13 -61,10 -19,-3 -31,-2 -37,3 -5,5 -7,17 -4,35 2,18 4,43 -12,58 -16,15 -43,13 -61,10 -8,-1 -13,-8 -11,-15 1,-7 9,-12 16,-11 19,3 31,2 37,-3 5,-5 7,-17 4,-35 -2,-14 -3,-33 5,-48l-161 -55c-5,-2 -8,-5 -9,-10 -1,-5 1,-9 4,-13l19 -18 9 -461c0,-5 4,-10 9,-12z"/>
   <path class="fil1" d="M4525 7851l0 -15c0,-7 7,-13 14,-13 8,0 14,6 14,14l0 15c0,4 -2,7 -4,9 -3,2 -6,4 -10,4 -8,0 -14,-6 -14,-14z"/>
   <path class="fil1" d="M4522 7980l2 -94c0,-7 7,-13 14,-13 8,0 14,6 14,14l-2 94c0,4 -2,7 -4,9 -3,2 -6,4 -10,4 -8,0 -14,-6 -14,-14z"/>
   <path class="fil1" d="M4859 7946c5,5 12,5 17,0 5,-4 5,-12 0,-16 -5,-5 -12,-5 -17,0 -5,4 -5,12 0,16zm38 -35c15,15 15,40 -1,55 -16,15 -41,15 -57,-1 -15,-15 -15,-40 1,-55 16,-15 41,-15 57,1z"/>
   <path class="fil1" d="M4771 8045c5,-4 5,-12 0,-16 -5,-5 -12,-5 -17,0 -5,4 -5,12 0,16 5,5 12,5 17,0zm-36 -36c16,-15 41,-15 57,1 15,15 15,40 -1,55 -16,15 -41,15 -57,-1 -15,-15 -15,-40 1,-55z"/>
   <path class="fil1" d="M4666 8127c-5,-5 -12,-5 -17,0 -5,4 -5,12 0,16 5,5 12,5 17,0 5,-4 5,-12 0,-16zm-38 35c-15,-15 -15,-40 1,-55 16,-15 41,-15 57,1 15,15 15,40 -1,55 -16,15 -41,15 -57,-1z"/>
   <path class="fil1" d="M4828 8152c0,4 -2,7 -4,10 -2,2 -6,4 -9,4 -2,0 -3,0 -5,0 -8,0 -14,-6 -13,-14 0,-7 7,-13 14,-13 1,0 3,0 4,0 8,0 14,6 14,13z"/>
  </g>
  <path class="fil1" d="M1167 4533c29,-34 80,-60 142,-70 6,-36 17,-53 17,-54 -5,-2 -10,-3 -17,-2 -8,2 -13,6 -17,11 -1,2 -3,1 -4,-1 0,-3 0,-6 1,-9 2,-8 8,-15 17,-16 5,-1 10,0 15,2 -4,-4 -9,-6 -15,-8 -13,-4 -25,-2 -34,4 -2,1 -3,0 -3,-2 2,-5 5,-11 10,-16 9,-8 22,-12 34,-8 4,1 7,3 10,6 0,0 0,-1 -1,-1 -9,-10 -19,-15 -30,-15 -2,0 -3,-3 -2,-4 4,-3 8,-5 14,-7 13,-3 27,1 36,12 3,4 5,8 6,12 4,-3 8,-5 12,-6 13,-4 27,1 36,11 4,4 6,9 7,13 1,2 -2,4 -4,3 -9,-6 -20,-8 -32,-5 0,0 -1,0 -1,0 4,0 8,0 12,2 12,4 20,14 23,26 2,7 1,13 -1,18 -1,2 -3,2 -4,0 -4,-10 -12,-18 -25,-22 -6,-2 -12,-3 -17,-2 5,1 10,3 13,7 6,6 7,15 4,23 -1,3 -3,6 -5,7 -1,1 -4,0 -3,-1 0,-6 -2,-13 -7,-19 -4,-5 -9,-8 -14,-8 0,0 -8,19 -9,46 13,-1 26,-2 39,-2 33,0 63,4 91,11 -6,-127 -84,-210 -84,-211 -10,6 -18,16 -23,30 -7,18 -6,34 1,47 2,4 -2,8 -6,6 -6,-3 -11,-7 -16,-13 -12,-15 -17,-35 -10,-53 5,-12 13,-21 23,-26 -12,3 -24,10 -36,19 -25,20 -36,45 -37,70 0,5 -6,7 -9,3 -8,-10 -14,-22 -17,-39 -4,-29 6,-59 29,-77 7,-6 16,-10 24,-13 -1,0 -2,0 -3,0 -31,4 -53,18 -67,37 -3,5 -11,3 -11,-3 -1,-11 0,-22 5,-35 12,-29 37,-51 69,-54 11,-1 22,0 32,4 -1,-11 0,-22 4,-32 10,-30 37,-50 68,-55 14,-2 26,-1 36,3 5,2 5,9 0,11 -22,9 -42,27 -52,57 0,1 -1,2 -1,2 5,-8 11,-15 18,-21 23,-18 54,-21 81,-11 16,6 27,15 35,26 3,3 0,8 -5,7 -25,-5 -52,0 -78,20 -12,9 -21,20 -27,31 8,-9 18,-15 31,-17 19,-3 38,7 49,22 5,6 7,12 9,19 1,4 -4,7 -7,5 -12,-9 -27,-14 -46,-11 -15,2 -27,9 -36,17 1,1 86,65 148,255 61,-187 145,-249 146,-251 -8,-9 -20,-15 -36,-17 -19,-3 -34,2 -46,11 -3,3 -8,-1 -7,-5 1,-6 4,-12 9,-19 11,-16 30,-25 49,-22 12,2 23,8 31,17 -6,-11 -15,-22 -27,-31 -26,-20 -53,-25 -78,-20 -4,1 -7,-4 -5,-7 8,-11 19,-20 35,-26 27,-10 59,-7 81,11 7,6 13,13 18,21 0,-1 -1,-2 -1,-2 -11,-30 -30,-48 -52,-57 -5,-2 -5,-9 0,-11 10,-4 22,-5 36,-3 31,5 58,25 68,55 3,11 5,22 4,32 10,-3 21,-5 32,-4 31,3 57,25 69,54 5,13 6,24 5,35 -1,6 -8,7 -11,3 -14,-20 -36,-34 -67,-37 -1,0 -2,0 -3,0 8,3 17,7 24,13 23,18 33,48 29,77 -2,17 -8,29 -17,39 -3,4 -9,1 -9,-3 -1,-25 -12,-50 -37,-70 -12,-9 -24,-16 -36,-19 10,6 19,15 23,26 7,18 2,38 -10,53 -5,6 -11,10 -16,13 -4,2 -8,-2 -6,-6 6,-13 7,-29 1,-47 -5,-14 -13,-23 -23,-30 0,0 -78,84 -84,211 28,-7 59,-11 91,-11 13,0 26,1 39,2 -1,-27 -9,-46 -9,-46 -5,1 -10,4 -14,8 -5,6 -7,13 -7,19 0,2 -2,3 -3,1 -2,-2 -3,-4 -5,-7 -3,-8 -2,-17 4,-23 4,-4 8,-6 13,-7 -5,-1 -11,0 -17,2 -13,4 -21,13 -25,22 -1,2 -3,2 -4,0 -2,-5 -2,-11 -1,-18 3,-12 11,-23 23,-26 4,-1 8,-2 12,-2 0,0 -1,0 -1,0 -13,-3 -24,-1 -32,5 -2,1 -5,-1 -4,-3 1,-5 3,-9 7,-13 9,-10 23,-15 36,-11 5,1 9,4 12,6 1,-4 3,-9 6,-12 8,-11 22,-15 36,-12 6,1 10,4 14,7 2,1 1,4 -2,4 -10,0 -21,5 -30,15 0,0 -1,1 -1,1 3,-2 7,-4 10,-6 12,-4 25,0 34,8 6,5 9,10 10,16 0,2 -1,3 -3,2 -9,-6 -21,-8 -34,-4 -6,2 -11,5 -15,8 4,-2 10,-3 15,-2 8,2 14,8 17,16 1,3 1,6 1,9 0,2 -3,2 -4,1 -3,-5 -9,-10 -17,-11 -7,-1 -12,-1 -17,2 0,0 11,17 17,54 62,11 113,36 142,70 6,7 1,19 -9,19l-391 0c-4,0 -7,-2 -9,-5l-358 0c-10,0 -15,-11 -9,-19z"/>
  <path class="fil1" d="M6683 8913c66,-78 183,-137 325,-161 14,-83 39,-122 39,-123 -11,-5 -24,-7 -39,-4 -18,4 -31,14 -38,26 -2,4 -8,2 -8,-2 -1,-6 -1,-13 1,-20 5,-18 19,-33 38,-37 12,-3 24,-1 34,5 -9,-8 -21,-15 -35,-19 -31,-10 -57,-5 -78,8 -4,2 -8,-1 -7,-5 4,-12 10,-25 23,-36 21,-19 52,-27 79,-18 9,3 17,7 24,13 0,-1 -1,-1 -2,-2 -20,-24 -44,-34 -68,-34 -5,0 -7,-7 -4,-10 8,-7 19,-13 32,-15 30,-6 62,3 82,27 7,9 12,18 15,29 8,-7 18,-12 28,-15 30,-8 61,3 82,26 9,10 14,20 17,31 1,5 -5,10 -9,7 -19,-13 -45,-19 -74,-11 -1,0 -2,0 -2,1 9,0 18,1 27,4 27,9 47,33 53,61 4,16 2,30 -2,42 -2,4 -8,4 -9,0 -9,-23 -28,-42 -58,-51 -14,-5 -28,-6 -40,-5 11,2 22,7 31,16 13,14 15,35 9,52 -3,7 -6,13 -11,17 -3,3 -8,1 -8,-3 1,-14 -3,-29 -16,-43 -9,-11 -20,-18 -31,-19 0,0 -17,43 -20,105 29,-3 59,-5 89,-5 75,0 146,9 210,26 -13,-290 -192,-482 -192,-483 -22,15 -41,37 -53,68 -16,41 -13,77 1,108 4,9 -6,18 -14,14 -13,-6 -26,-15 -37,-29 -29,-34 -40,-81 -23,-122 11,-27 30,-48 54,-60 -28,8 -56,22 -83,44 -58,46 -84,103 -85,160 0,11 -14,15 -20,7 -19,-23 -33,-51 -38,-90 -9,-66 14,-135 67,-176 17,-13 36,-23 55,-30 -2,0 -4,0 -6,1 -71,8 -122,41 -153,86 -7,10 -24,6 -26,-7 -2,-25 0,-52 12,-81 27,-67 86,-117 158,-123 26,-2 51,1 74,9 -2,-24 0,-50 8,-74 22,-69 84,-115 156,-126 32,-5 59,-1 83,7 11,4 12,21 1,25 -51,21 -96,63 -120,131 -1,2 -1,4 -2,6 11,-17 25,-33 42,-47 52,-42 124,-49 187,-25 37,14 62,35 80,60 6,8 -1,18 -11,16 -57,-12 -119,0 -178,47 -27,22 -48,46 -61,71 18,-20 42,-34 71,-39 44,-7 87,15 113,50 11,14 17,28 20,42 2,10 -9,17 -17,11 -26,-21 -61,-31 -105,-25 -35,5 -62,19 -82,39 3,3 198,148 338,585 140,-429 332,-571 335,-574 -19,-20 -47,-34 -82,-39 -43,-6 -78,5 -105,25 -8,6 -19,-1 -17,-11 3,-14 9,-28 20,-42 26,-36 70,-57 113,-50 28,4 53,18 71,39 -14,-25 -34,-50 -61,-71 -59,-47 -121,-58 -178,-47 -10,2 -16,-9 -11,-16 18,-25 43,-46 80,-60 63,-24 135,-17 187,25 17,14 31,30 42,47 -1,-2 -1,-4 -2,-6 -24,-68 -69,-110 -120,-131 -11,-5 -11,-21 1,-25 24,-8 51,-12 83,-7 71,11 134,57 156,126 8,25 10,50 8,74 23,-8 48,-11 74,-9 72,6 131,56 158,123 12,29 15,56 12,81 -1,13 -18,17 -26,7 -32,-45 -82,-78 -153,-86 -2,0 -4,0 -6,-1 19,7 38,16 55,30 53,41 76,110 67,176 -5,38 -19,67 -38,90 -7,8 -20,3 -20,-7 -2,-57 -27,-114 -85,-160 -27,-22 -55,-36 -83,-44 24,13 43,33 54,60 16,41 5,88 -23,122 -12,14 -24,23 -37,29 -9,4 -18,-5 -14,-14 14,-30 17,-67 1,-108 -12,-31 -31,-53 -53,-68 0,1 -179,193 -192,483 64,-17 135,-26 210,-26 31,0 60,2 89,5 -2,-62 -20,-105 -20,-105 -11,2 -22,8 -31,19 -12,14 -17,29 -16,43 0,4 -5,6 -8,3 -4,-4 -8,-10 -11,-17 -6,-18 -4,-38 9,-52 8,-9 19,-15 31,-16 -12,-1 -26,0 -40,5 -30,10 -49,29 -58,51 -2,4 -8,4 -9,0 -4,-12 -6,-26 -2,-42 6,-28 26,-52 53,-61 9,-3 18,-4 27,-4 -1,0 -2,0 -2,-1 -30,-7 -55,-2 -74,11 -5,3 -11,-1 -9,-7 3,-10 8,-21 17,-31 21,-23 52,-34 82,-26 11,3 20,8 29,15 3,-10 8,-20 15,-29 19,-24 51,-33 82,-27 13,3 24,8 32,15 4,3 2,10 -4,10 -24,1 -48,11 -68,34 -1,1 -1,1 -2,2 7,-5 15,-10 24,-13 27,-9 57,-1 79,18 13,11 20,24 23,36 1,4 -3,7 -7,5 -21,-13 -48,-18 -78,-8 -14,5 -26,11 -35,19 10,-5 22,-7 34,-5 19,4 33,19 38,37 2,7 2,14 1,20 -1,4 -6,5 -8,2 -8,-12 -20,-22 -38,-26 -15,-3 -28,-2 -39,4 1,1 25,40 39,123 142,24 259,83 325,161 14,17 2,43 -20,43l-895 0c-9,0 -17,-4 -21,-11l-820 0c-22,0 -35,-26 -20,-43z"/>
 </g>
</svg>
