<?xml version="1.0" encoding="UTF-8"?>
<!DOCTYPE svg PUBLIC "-//W3C//DTD SVG 1.1//EN" "http://www.w3.org/Graphics/SVG/1.1/DTD/svg11.dtd">
<!-- Creator: CorelDRAW 2017 -->
<svg xmlns="http://www.w3.org/2000/svg" xml:space="preserve" width="105.833mm" height="105.833mm" version="1.1" style="shape-rendering:geometricPrecision; text-rendering:geometricPrecision; image-rendering:optimizeQuality; fill-rule:evenodd; clip-rule:evenodd"
viewBox="0 0 10583 10583"
 xmlns:xlink="http://www.w3.org/1999/xlink">
 <defs>
  <style type="text/css">
   <![CDATA[
    .str1 {stroke:white;stroke-width:176.38;stroke-opacity:0.341176}
    .str0 {stroke:white;stroke-width:35.28;stroke-dasharray:70.560000 176.400000;stroke-opacity:0.341176}
    .fil0 {fill:none}
    .fil1 {fill:white;fill-rule:nonzero;fill-opacity:0.341176}
   ]]>
  </style>
 </defs>
 <g id="Camada_x0020_1">
  <metadata id="CorelCorpID_0Corel-Layer"/>
  <path class="fil0 str0" d="M5546 474c0,0 -558,1387 -226,1404 332,17 1107,609 1107,609l1333 169c1145,18 920,-300 1624,1285 -121,220 -242,440 -363,661 -1546,1583 -1336,-1915 278,659 -1054,1502 -846,1217 -2196,1336l-1606 155c280,-1696 -424,-565 -1301,55"/>
  <g id="_772322768">
   <path class="fil1" d="M8135 2284l-5 -101 -265 255 278 -12 -8 -143zm34 141l130 -5 -137 -109 6 115zm-23 -282c5,2 8,6 9,10l7 125 176 140 99 -4c5,0 9,2 11,5 3,3 3,8 1,11l-75 152c2,2 4,4 5,5 11,12 21,18 28,18 7,0 16,-7 26,-20 4,-5 12,-7 18,-3 6,4 8,11 4,16 -10,13 -25,30 -46,31 -21,1 -39,-15 -50,-27 -11,-12 -21,-18 -28,-18 -7,0 -16,7 -26,20 -10,13 -25,30 -46,31 -21,1 -39,-15 -50,-27 -11,-12 -21,-18 -28,-18 -7,0 -16,7 -26,20 -12,16 -23,25 -35,29 -7,2 -14,-1 -17,-7 -3,-6 1,-13 8,-15 6,-2 14,-9 22,-20 10,-13 25,-30 46,-31 21,-1 39,15 50,27 11,12 21,18 28,18 7,0 16,-7 26,-20 10,-13 25,-30 46,-31 9,0 16,2 23,6l63 -129 -591 25 76 121c12,5 23,15 30,23 11,12 21,18 28,18 7,0 16,-7 26,-20 14,-19 28,-29 43,-30 13,-1 25,3 38,13 5,4 6,12 1,16 -5,5 -13,5 -19,1 -7,-5 -12,-8 -17,-7 -5,1 -13,4 -25,20 -10,13 -25,30 -46,31 -21,1 -39,-15 -50,-27 -11,-12 -21,-18 -28,-18 -7,0 -16,7 -26,20 -10,13 -25,30 -46,31 -21,1 -39,-15 -50,-27 -5,-5 -4,-12 2,-16 6,-4 14,-3 19,2 11,12 21,18 28,18 7,0 16,-7 26,-20 8,-10 19,-23 35,-29l-78 -125c-2,-3 -2,-8 0,-11 2,-3 6,-6 11,-6l25 -1 304 -293c4,-3 9,-5 14,-3z"/>
   <path class="fil1" d="M8076 2268l10 -10c5,-5 13,-5 19,-1 5,4 6,12 1,16l-10 10c-2,2 -6,4 -9,4 -3,0 -7,-1 -10,-3 -5,-4 -6,-12 -1,-16z"/>
   <path class="fil1" d="M7991 2350l62 -60c5,-5 13,-5 19,-1 5,4 6,12 1,16l-62 60c-2,2 -6,4 -9,4 -3,0 -7,-1 -9,-3 -5,-4 -6,-12 -1,-16z"/>
   <path class="fil1" d="M8250 2514c0,6 6,10 12,10 6,0 11,-5 11,-10 0,-6 -6,-10 -12,-10 -6,0 -11,5 -11,10zm49 -2c1,18 -15,34 -36,35 -21,1 -39,-13 -40,-32 -1,-18 15,-34 36,-35 21,-1 39,13 40,32z"/>
   <path class="fil1" d="M8124 2529c6,0 11,-5 11,-10 0,-6 -6,-10 -12,-10 -6,0 -11,5 -11,10 0,6 6,10 12,10zm-2 -43c21,-1 39,13 40,32 1,18 -15,34 -36,35 -21,1 -39,-13 -40,-32 -1,-18 15,-34 36,-35z"/>
   <path class="fil1" d="M7997 2524c0,-6 -6,-10 -12,-10 -6,0 -11,5 -11,10 0,6 6,10 12,10 6,0 11,-5 11,-10zm-49 2c-1,-18 15,-34 36,-35 21,-1 39,13 40,32 1,18 -15,34 -36,35 -21,1 -39,-13 -40,-32z"/>
   <path class="fil1" d="M8095 2629c-2,3 -6,4 -9,4 -3,0 -7,-1 -9,-3 -1,-1 -2,-2 -4,-3 -5,-4 -6,-12 -1,-16 5,-5 13,-5 19,0 1,1 2,1 3,2 6,4 6,11 1,16z"/>
  </g>
  <g id="_772335280">
   <path class="fil1" d="M8707 5437l-88 -64 30 344 180 -191 -123 -89zm140 71l85 -90 -184 18 99 72zm-249 -172c5,-2 10,-2 15,1l108 78 236 -23 65 -69c3,-3 7,-5 12,-4 4,0 8,3 10,7l75 151c3,0 6,0 8,0 18,1 30,-2 34,-6 5,-5 5,-15 1,-30 -2,-6 3,-13 10,-14 7,-2 14,2 16,8 4,15 8,36 -6,51 -14,15 -39,16 -56,15 -18,-1 -30,2 -34,6 -5,5 -5,15 -1,30 4,15 8,36 -6,51 -14,15 -39,16 -56,15 -18,-1 -30,2 -34,6 -5,5 -5,15 -1,30 5,18 5,31 0,42 -3,6 -10,9 -17,7 -7,-2 -10,-9 -7,-15 3,-6 2,-15 -1,-28 -4,-15 -8,-36 6,-51 14,-15 39,-16 56,-15 18,1 30,-2 34,-6 5,-5 5,-15 1,-30 -4,-15 -8,-36 6,-51 6,-6 13,-10 21,-12l-63 -127 -384 407 152 30c13,-5 28,-5 40,-5 18,1 30,-2 34,-6 5,-5 5,-15 1,-30 -6,-22 -4,-38 4,-49 7,-9 19,-15 36,-17 7,-1 14,4 14,10 1,6 -5,12 -12,13 -9,1 -15,3 -17,7 -3,3 -5,11 0,30 4,15 8,36 -6,51 -14,15 -39,16 -56,15 -18,-1 -30,2 -34,6 -5,5 -5,15 -1,30 4,15 8,36 -6,51 -14,15 -39,16 -56,15 -7,0 -13,-6 -12,-12 1,-6 7,-11 14,-11 18,1 30,-2 34,-6 5,-5 5,-15 1,-30 -3,-12 -6,-28 0,-42l-156 -31c-4,-1 -8,-4 -9,-7 -1,-4 0,-8 3,-11l16 -17 -35 -395c0,-5 2,-9 7,-11z"/>
   <path class="fil1" d="M8653 5465l-1 -13c-1,-6 5,-12 12,-13 7,-1 14,4 14,10l1 13c0,3 -1,6 -3,9 -2,2 -5,4 -9,4 -7,1 -14,-4 -14,-10z"/>
   <path class="fil1" d="M8663 5575l-7 -80c-1,-6 5,-12 12,-13 7,-1 14,4 14,10l7 80c0,3 -1,6 -3,9 -2,2 -5,4 -9,4 -7,1 -14,-4 -14,-10z"/>
   <path class="fil1" d="M8975 5513c5,3 12,3 16,-2 4,-4 4,-11 -1,-14 -5,-3 -12,-3 -16,2 -4,4 -4,11 1,14zm32 -34c16,11 18,32 4,47 -14,14 -37,17 -53,5 -16,-11 -18,-32 -4,-47 14,-14 37,-17 53,-5z"/>
   <path class="fil1" d="M8902 5606c4,-4 4,-11 -1,-14 -5,-3 -12,-3 -16,2 -4,4 -4,11 1,14 5,3 12,3 16,-2zm-37 -27c14,-14 37,-17 53,-5 16,11 18,32 4,47 -14,14 -37,17 -53,5 -16,-11 -18,-32 -4,-47z"/>
   <path class="fil1" d="M8811 5687c-5,-3 -12,-3 -16,2 -4,4 -4,11 1,14 5,3 12,3 16,-2 4,-4 4,-11 -1,-14zm-32 34c-16,-11 -18,-32 -4,-47 14,-14 37,-17 53,-5 16,11 18,32 4,47 -14,14 -37,17 -53,5z"/>
   <path class="fil1" d="M8965 5692c0,3 -1,6 -3,9 -2,2 -5,4 -9,4 -2,0 -3,0 -5,1 -7,1 -13,-4 -14,-10 0,-6 5,-12 12,-13 1,0 2,0 3,0 7,-1 14,3 15,10z"/>
  </g>
  <path class="fil1" d="M1689 4013c27,-29 75,-51 134,-60 6,-31 16,-46 16,-46 -4,-2 -10,-3 -16,-1 -7,2 -13,5 -16,10 -1,1 -3,1 -3,-1 0,-2 0,-5 1,-7 2,-7 8,-13 16,-14 5,-1 10,0 14,2 -4,-3 -9,-6 -15,-7 -13,-4 -24,-2 -32,3 -1,1 -3,0 -3,-2 1,-5 4,-9 10,-14 9,-7 21,-10 32,-7 4,1 7,3 10,5 0,0 0,-1 -1,-1 -8,-9 -18,-13 -28,-13 -2,0 -3,-3 -1,-4 3,-3 8,-5 13,-6 12,-2 26,1 34,10 3,3 5,7 6,11 3,-2 7,-4 12,-6 12,-3 25,1 34,10 4,4 6,8 7,11 1,2 -2,4 -4,2 -8,-5 -18,-7 -31,-4 0,0 -1,0 -1,0 4,0 7,0 11,1 11,3 19,12 22,23 2,6 1,11 -1,16 -1,2 -3,2 -4,0 -4,-8 -12,-16 -24,-19 -6,-2 -11,-2 -16,-2 5,1 9,3 13,6 5,5 6,13 4,20 -1,3 -3,5 -4,6 -1,1 -3,0 -3,-1 0,-5 -1,-11 -7,-16 -4,-4 -8,-7 -13,-7 0,0 -7,16 -8,39 12,-1 24,-2 37,-2 31,0 60,3 86,10 -5,-109 -79,-181 -79,-181 -9,5 -17,14 -22,26 -6,15 -5,29 0,40 2,3 -2,7 -6,5 -5,-2 -11,-6 -15,-11 -12,-13 -16,-30 -10,-46 4,-10 12,-18 22,-23 -11,3 -23,8 -34,16 -24,17 -34,39 -35,60 0,4 -6,6 -8,3 -8,-9 -14,-19 -16,-34 -4,-25 6,-51 27,-66 7,-5 15,-9 23,-11 -1,0 -2,0 -2,0 -29,3 -50,15 -63,32 -3,4 -10,2 -11,-3 -1,-9 0,-19 5,-30 11,-25 35,-44 65,-46 11,-1 21,0 31,3 -1,-9 0,-19 3,-28 9,-26 35,-43 64,-47 13,-2 24,-1 34,3 5,1 5,8 0,9 -21,8 -39,24 -49,49 0,1 -1,1 -1,2 4,-7 10,-13 17,-18 21,-16 51,-18 77,-9 15,5 26,13 33,22 2,3 0,7 -4,6 -23,-4 -49,0 -73,17 -11,8 -20,17 -25,27 7,-8 17,-13 29,-14 18,-2 36,6 47,19 4,5 7,11 8,16 1,4 -4,6 -7,4 -11,-8 -25,-12 -43,-10 -14,2 -26,7 -34,15 1,1 81,56 139,220 58,-161 136,-215 138,-216 -8,-7 -19,-13 -34,-15 -18,-2 -32,2 -43,10 -3,2 -8,0 -7,-4 1,-5 4,-11 8,-16 11,-13 29,-21 47,-19 12,2 22,7 29,14 -6,-10 -14,-19 -25,-27 -24,-18 -50,-22 -73,-17 -4,1 -7,-3 -4,-6 7,-9 18,-17 33,-22 26,-9 55,-6 77,9 7,5 13,11 17,18 0,-1 -1,-1 -1,-2 -10,-26 -28,-41 -49,-49 -5,-2 -4,-8 0,-9 10,-3 21,-4 34,-3 29,4 55,21 64,47 3,9 4,19 3,28 10,-3 20,-4 31,-3 30,2 54,21 65,46 5,11 6,21 5,30 -1,5 -7,6 -11,3 -13,-17 -34,-29 -63,-32 -1,0 -2,0 -2,0 8,2 16,6 23,11 22,15 31,41 27,66 -2,14 -8,25 -16,34 -3,3 -8,1 -8,-3 -1,-21 -11,-43 -35,-60 -11,-8 -23,-13 -34,-16 10,5 18,13 22,23 7,15 2,33 -10,46 -5,5 -10,9 -15,11 -4,2 -8,-2 -6,-5 6,-11 7,-25 0,-40 -5,-12 -13,-20 -22,-26 0,0 -73,73 -79,181 26,-6 56,-10 86,-10 13,0 25,1 37,2 -1,-23 -8,-39 -8,-39 -4,1 -9,3 -13,7 -5,5 -7,11 -7,16 0,2 -2,2 -3,1 -2,-2 -3,-4 -4,-6 -3,-7 -2,-14 4,-20 3,-3 8,-5 13,-6 -5,0 -11,0 -16,2 -12,4 -20,11 -24,19 -1,2 -3,2 -4,0 -2,-4 -2,-10 -1,-16 3,-10 11,-20 22,-23 4,-1 7,-1 11,-1 0,0 -1,0 -1,0 -12,-3 -23,-1 -31,4 -2,1 -4,0 -4,-2 1,-4 3,-8 7,-11 9,-9 21,-13 34,-10 4,1 8,3 12,6 1,-4 3,-7 6,-11 8,-9 21,-13 34,-10 6,1 10,3 13,6 2,1 1,4 -1,4 -10,0 -20,4 -28,13 0,0 0,0 -1,1 3,-2 6,-4 10,-5 11,-3 24,0 32,7 5,4 8,9 10,14 0,2 -1,3 -3,2 -9,-5 -20,-7 -32,-3 -6,2 -11,4 -15,7 4,-2 9,-3 14,-2 8,2 13,7 16,14 1,3 1,5 1,7 0,2 -3,2 -3,1 -3,-5 -8,-8 -16,-10 -6,-1 -11,-1 -16,1 0,0 10,15 16,46 58,9 107,31 134,60 6,6 1,16 -8,16l-368 0c-4,0 -7,-2 -9,-4l-337 0c-9,0 -14,-10 -8,-16z"/>
  <path class="fil1" d="M6888 7784c62,-67 173,-118 306,-139 13,-72 36,-105 37,-106 -10,-4 -22,-6 -36,-3 -17,4 -29,12 -36,22 -2,3 -7,2 -8,-2 -1,-5 -1,-11 1,-17 5,-16 18,-29 36,-32 11,-2 23,0 32,4 -9,-7 -20,-13 -33,-17 -29,-8 -54,-4 -74,7 -3,2 -7,-1 -6,-4 3,-11 10,-21 22,-31 20,-16 49,-23 74,-16 8,3 16,6 22,11 0,-1 -1,-1 -2,-2 -19,-20 -42,-29 -64,-30 -5,0 -7,-6 -3,-9 8,-6 18,-11 30,-13 29,-6 59,2 77,23 7,7 11,16 14,25 8,-6 17,-10 27,-13 28,-7 57,2 77,22 8,8 13,17 16,26 1,5 -4,8 -9,6 -18,-11 -42,-16 -70,-10 -1,0 -2,0 -2,1 8,0 17,1 25,3 26,7 44,28 50,52 4,14 2,26 -2,36 -1,4 -7,4 -9,0 -9,-19 -27,-36 -55,-44 -14,-4 -26,-5 -38,-4 11,1 21,6 29,14 12,12 14,30 8,45 -2,6 -6,11 -10,15 -3,3 -8,1 -7,-3 1,-12 -3,-25 -15,-37 -9,-9 -19,-15 -30,-16 0,0 -16,37 -19,90 27,-3 56,-4 84,-4 70,0 137,8 198,23 -12,-250 -181,-415 -181,-416 -21,13 -38,32 -50,59 -15,35 -12,67 1,93 4,8 -5,15 -13,12 -12,-5 -24,-13 -35,-25 -27,-29 -37,-70 -22,-105 10,-23 28,-41 51,-52 -26,7 -53,19 -79,37 -55,40 -79,89 -81,138 0,9 -13,13 -19,6 -18,-19 -31,-44 -36,-77 -8,-57 13,-116 63,-152 16,-12 34,-20 52,-26 -2,0 -4,0 -6,1 -67,7 -115,35 -145,74 -7,9 -23,5 -24,-6 -2,-21 0,-44 11,-69 25,-58 81,-101 148,-106 24,-2 48,1 70,8 -2,-21 0,-43 8,-64 21,-59 80,-99 147,-108 30,-4 56,-1 78,6 11,3 11,18 1,22 -48,18 -90,54 -113,113 -1,2 -1,3 -2,5 10,-15 23,-29 39,-41 49,-36 117,-42 176,-22 35,12 59,30 76,51 5,7 -1,16 -10,14 -53,-10 -112,0 -168,40 -26,19 -45,40 -58,61 17,-17 40,-30 67,-33 41,-6 82,13 107,43 10,12 16,25 18,37 2,8 -9,14 -16,9 -25,-18 -58,-27 -99,-22 -33,4 -59,17 -77,34 3,2 187,128 319,504 132,-369 313,-492 316,-494 -18,-17 -44,-30 -77,-34 -41,-5 -74,4 -99,22 -7,5 -18,-1 -16,-9 3,-12 8,-24 18,-37 25,-31 66,-49 107,-43 27,4 50,16 67,33 -13,-22 -32,-43 -58,-61 -56,-40 -114,-50 -168,-40 -9,2 -15,-7 -10,-14 17,-21 41,-39 76,-51 59,-20 127,-15 176,22 16,12 29,25 39,41 -1,-2 -1,-3 -2,-5 -23,-59 -65,-95 -113,-113 -11,-4 -10,-18 1,-22 23,-7 48,-10 78,-6 67,9 126,49 147,108 7,21 10,43 8,64 22,-7 46,-9 70,-8 68,5 123,48 148,106 11,25 14,48 11,69 -1,11 -17,15 -24,6 -30,-38 -78,-67 -145,-74 -2,0 -4,0 -6,-1 18,6 36,14 52,26 50,35 71,95 63,152 -5,33 -18,58 -36,77 -6,7 -19,3 -19,-6 -2,-49 -26,-98 -81,-138 -26,-19 -52,-31 -79,-37 22,11 41,29 51,52 15,35 5,76 -22,105 -11,12 -23,20 -35,25 -8,4 -17,-4 -13,-12 13,-26 16,-58 1,-93 -11,-27 -29,-46 -50,-59 0,1 -168,166 -181,416 60,-15 127,-23 198,-23 29,0 57,1 84,4 -2,-53 -19,-90 -19,-90 -10,1 -21,7 -30,16 -12,12 -16,25 -15,37 0,4 -5,5 -7,3 -4,-4 -8,-9 -10,-15 -6,-15 -4,-33 8,-45 8,-8 18,-13 29,-14 -12,-1 -24,0 -38,4 -28,8 -46,25 -55,44 -2,4 -7,4 -9,0 -4,-10 -5,-22 -2,-36 6,-24 24,-45 50,-52 8,-2 17,-3 25,-3 -1,0 -2,0 -2,-1 -28,-6 -52,-2 -70,10 -4,3 -10,-1 -9,-6 3,-9 8,-18 16,-26 20,-20 49,-29 77,-22 10,3 19,7 27,13 3,-9 7,-17 14,-25 18,-21 48,-29 77,-23 13,3 22,7 30,13 4,3 2,9 -3,9 -22,1 -45,9 -64,30 -1,1 -1,1 -2,2 7,-5 14,-8 22,-11 26,-8 54,-1 74,16 12,10 19,20 22,31 1,4 -3,6 -6,4 -20,-11 -45,-16 -74,-7 -13,4 -24,10 -33,17 10,-5 21,-6 32,-4 17,3 31,16 36,32 2,6 2,12 1,17 -1,4 -6,5 -8,2 -7,-11 -19,-19 -36,-22 -14,-3 -26,-1 -36,3 1,1 24,34 37,106 134,21 245,72 306,139 13,14 2,37 -19,37l-844 0c-9,0 -16,-4 -20,-9l-773 0c-21,0 -33,-22 -19,-37z"/>
  <path class="fil0 str1" d="M3629 6746l895 306m-334 -577l-228 848"/>
 </g>
</svg>
