<?xml version="1.0" encoding="utf-8"?>
<!-- Generator: Adobe Illustrator 16.0.0, SVG Export Plug-In . SVG Version: 6.00 Build 0)  -->
<!DOCTYPE svg PUBLIC "-//W3C//DTD SVG 1.1//EN" "http://www.w3.org/Graphics/SVG/1.1/DTD/svg11.dtd">
<svg version="1.1" id="Layer_1" xmlns="http://www.w3.org/2000/svg" xmlns:xlink="http://www.w3.org/1999/xlink" x="0px" y="0px"
	 width="471.376px" height="314.251px" viewBox="0 0 471.376 314.251" enable-background="new 0 0 471.376 314.251"
	 xml:space="preserve">
<g>
	<g>
		<defs>
			<path id="SVGID_1_" d="M379.158,159.124c0,80.343-65.132,145.478-145.479,145.478c-80.34,0-145.475-65.135-145.475-145.478
				c0-80.348,65.135-145.476,145.475-145.476C314.026,13.647,379.158,78.776,379.158,159.124z"/>
		</defs>
		<clipPath id="SVGID_2_">
			<use xlink:href="#SVGID_1_"  overflow="visible"/>
		</clipPath>
		<g transform="matrix(1 0 0 1 -1.192093e-007 1.192093e-007)" clip-path="url(#SVGID_2_)">
			
				<image overflow="visible" width="1350" height="900" xlink:href="../../../../../../../../../Users/Home Office/Desktop/CompJunior/WebProcjet/assets/media/img/meubarco.jpg"  transform="matrix(0.3492 0 0 0.3492 -2 2)">
			</image>
		</g>
	</g>
	<g>
		<path fill="#F7F8F8" d="M82.158,304.366l65.58-37.942c0,0,11.507-8.778,19.754-0.441c8.246,8.346,27.17,8.778,27.17,8.778
			l0.469,18.605l41.247-12.828l0.501,19.8l18.36,7.554L82.158,304.366z"/>
		<g>
			<path fill="#F7F8F8" d="M101.595,245.665c0.268,0.244,0.615,0.403,0.995,0.427l0.071,0.012l3.856-0.298
				c-0.811,0.807-1.598,1.692-2.364,2.658c-5.965,7.527-4.281,20.094-4.206,20.629c0.094,0.656,0.571,1.187,1.215,1.351
				c0.636,0.153,1.323-0.088,1.7-0.605c0.614-0.821,5.987-8.104,6.185-11.527c0.006-0.101,0.012-0.206,0.018-0.315l0.078,0.006
				c0.5-0.015,0.957-0.256,1.254-0.639l2.918-3.805c0.185-0.244,0.295-0.526,0.325-0.818c0.04-0.023,0.084-0.056,0.122-0.082
				c0.124-0.101,2.657-2.084,4.333-5.303c4.017,4.458,15.746,18.97,16.574,37.012c0.029,0.598,0.376,1.137,0.943,1.407
				c0.4,0.186,2.543,1.106,5.27,1.036c1.755-0.045,3.389-0.486,4.851-1.313c0.634-0.364,0.955-1.106,0.778-1.81
				c-0.287-1.168-6.839-27.06-21.677-37.51c0.345-0.073,0.561-0.132,0.623-0.147c0.053-0.018,0.104-0.035,0.156-0.053
				c0.256,0.147,0.552,0.224,0.854,0.215l4.784-0.12c0.528-0.012,1.002-0.269,1.301-0.701c0.087,0.06,0.175,0.118,0.261,0.171
				c2.803,1.805,11.286,1.808,12.887,1.783h0.122c0.639-0.018,1.188-0.399,1.448-1.026c0.237-0.618,0.088-1.313-0.387-1.769
				c-0.341-0.333-7.774-7.446-16.264-8.597c3.243-0.424,8.589-3.022,9.692-3.575c0.598-0.304,0.951-0.921,0.899-1.577
				c-0.047-0.662-0.484-1.222-1.133-1.434c-0.517-0.168-5.178-1.595-10.388-1.463c-3.215,0.08-5.998,0.742-8.267,1.963
				c-4.967,2.685-7.159,5.677-8.097,7.511c-1.838-0.639-4.592-1.201-8.346-0.978c-8.506,0.513-15.824,9.047-16.131,9.411
				c-0.427,0.516-0.501,1.219-0.197,1.808c0.288,0.55,0.857,0.9,1.59,0.865c1.475-0.139,8.952-0.895,11.288-2.749
				C101.548,245.703,101.57,245.679,101.595,245.665z"/>
		</g>
		<g>
			<path fill="#F7F8F8" d="M192.55,234.108c2.428,1.742,9.931,2.131,11.413,2.181c0.731-0.006,1.285-0.377,1.546-0.945
				c0.274-0.6,0.161-1.304-0.287-1.786c-0.33-0.358-8.063-8.514-16.589-8.593c-3.76-0.029-6.482,0.665-8.286,1.395
				c-1.03-1.786-3.373-4.658-8.461-7.089c-2.331-1.109-5.146-1.628-8.362-1.548c-5.208,0.132-9.794,1.792-10.298,1.983
				c-0.637,0.25-1.043,0.833-1.058,1.492c-0.018,0.662,0.362,1.262,0.977,1.524c1.131,0.503,6.598,2.828,9.86,3.087
				c-8.426,1.577-15.487,9.058-15.812,9.411c-0.451,0.477-0.568,1.171-0.299,1.777c0.291,0.612,0.861,0.978,1.5,0.959l0.122-0.006
				c1.601-0.064,10.069-0.491,12.782-2.437c0.085-0.053,0.167-0.114,0.251-0.183c0.319,0.412,0.807,0.653,1.33,0.639l4.787-0.117
				c0.303-0.009,0.592-0.104,0.843-0.265c0.051,0.023,0.103,0.032,0.156,0.044c0.065,0.015,0.284,0.059,0.631,0.114
				c-14.291,11.187-19.532,37.378-19.76,38.555c-0.141,0.715,0.219,1.437,0.867,1.766c1.504,0.757,3.158,1.115,4.91,1.071
				c2.731-0.07,4.819-1.092,5.21-1.304c0.553-0.303,0.875-0.854,0.875-1.453c-0.084-18.061,10.905-33.14,14.686-37.796
				c1.835,3.132,4.466,4.985,4.594,5.073c0.041,0.027,0.085,0.057,0.129,0.08c0.042,0.294,0.167,0.57,0.363,0.797l3.111,3.655
				c0.315,0.374,0.783,0.583,1.277,0.568h0.084c0.007,0.108,0.018,0.206,0.031,0.314c0.37,3.402,6.102,10.406,6.752,11.201
				c0.405,0.491,1.107,0.703,1.733,0.512c0.636-0.197,1.083-0.741,1.146-1.403c0.047-0.539,1.096-13.176-5.241-20.395
				c-0.815-0.927-1.645-1.766-2.493-2.531l3.868,0.104l0.065-0.021c0.378-0.041,0.72-0.221,0.971-0.474
				C192.505,234.084,192.527,234.099,192.55,234.108z"/>
		</g>
	</g>
</g>
</svg>
