<?xml version="1.0" encoding="utf-8"?>
<!-- Generator: Adobe Illustrator 16.0.0, SVG Export Plug-In . SVG Version: 6.00 Build 0)  -->
<!DOCTYPE svg PUBLIC "-//W3C//DTD SVG 1.1//EN" "http://www.w3.org/Graphics/SVG/1.1/DTD/svg11.dtd">
<svg version="1.1" id="Layer_1" xmlns="http://www.w3.org/2000/svg" xmlns:xlink="http://www.w3.org/1999/xlink" x="0px" y="0px"
	 width="199.891px" height="200px" viewBox="0 0 199.891 200" enable-background="new 0 0 199.891 200" xml:space="preserve">
<text transform="matrix(1 0 0 1 -196.981 -50.9116)" font-family="'MyriadPro-Regular'" font-size="12">200x200</text>
<g>
	<defs>
		<circle id="SVGID_1_" cx="99.981" cy="100.411" r="100"/>
	</defs>
	<clipPath id="SVGID_2_">
		<use xlink:href="#SVGID_1_"  overflow="visible"/>
	</clipPath>
	<g transform="matrix(1 0 0 1 -3.051758e-005 5.960464e-008)" clip-path="url(#SVGID_2_)">
		
			<image overflow="visible" width="1350" height="900" xlink:href="../../../../../../../../../Users/Home Office/Desktop/CompJunior/WebProcjet/assets/media/img/historiasdevelejante.jpg"  transform="matrix(-0.236 0 0 0.236 261.4341 -0.8965)">
		</image>
	</g>
</g>
<g>
	<path fill="#4D4D4D" d="M203.208,201.371l-40.67-25.597c0,0-6.09-5.777-11.514-0.687c-5.425,5.092-16.435,4.983-16.435,4.983
		l-0.737,11.781l-27.479-9.209l-0.784,12.533l-11.995,4.346L203.208,201.371z"/>
	<g>
		<path fill="#4D4D4D" d="M192.276,163.704c-0.176,0.147-0.398,0.239-0.642,0.248l-0.044,0.005l-2.438-0.278
			c0.495,0.53,0.974,1.11,1.436,1.738c3.604,4.916,2.239,12.838,2.179,13.177c-0.075,0.414-0.391,0.737-0.803,0.827
			c-0.407,0.084-0.837-0.088-1.063-0.425c-0.368-0.534-3.602-5.278-3.646-7.451c-0.002-0.065-0.004-0.132-0.003-0.2l-0.053-0.001
			c-0.314-0.021-0.598-0.179-0.777-0.435l-1.761-2.48c-0.111-0.157-0.174-0.339-0.187-0.524c-0.026-0.017-0.052-0.036-0.074-0.058
			c-0.076-0.063-1.636-1.382-2.621-3.461c-2.65,2.732-10.432,11.648-11.382,23.066c-0.033,0.379-0.267,0.709-0.633,0.87
			c-0.258,0.107-1.638,0.64-3.364,0.531c-1.111-0.069-2.135-0.389-3.042-0.95c-0.395-0.241-0.58-0.721-0.452-1.163
			c0.21-0.732,4.978-16.987,14.629-23.261c-0.216-0.054-0.353-0.096-0.391-0.108c-0.035-0.012-0.067-0.023-0.098-0.037
			c-0.166,0.088-0.356,0.13-0.548,0.118l-3.029-0.189c-0.333-0.021-0.629-0.196-0.808-0.476c-0.057,0.034-0.111,0.069-0.169,0.102
			c-1.82,1.075-7.195,0.876-8.21,0.826l-0.078-0.003c-0.403-0.025-0.743-0.283-0.895-0.69c-0.136-0.394-0.023-0.831,0.287-1.108
			c0.226-0.201,5.104-4.534,10.513-5.063c-2.045-0.345-5.37-2.121-6.059-2.499c-0.371-0.201-0.579-0.604-0.531-1.02
			c0.046-0.416,0.335-0.762,0.752-0.882c0.33-0.093,3.319-0.889,6.618-0.682c2.037,0.127,3.785,0.612,5.195,1.442
			c3.082,1.817,4.4,3.765,4.952,4.95c1.181-0.36,2.938-0.649,5.314-0.423c5.38,0.526,9.814,6.109,10.001,6.351
			c0.26,0.333,0.29,0.781,0.083,1.146c-0.195,0.347-0.566,0.552-1.03,0.513c-0.932-0.118-5.651-0.776-7.087-2.011
			C192.303,163.729,192.291,163.716,192.276,163.704z"/>
	</g>
	<g>
		<path fill="#4D4D4D" d="M134.898,154.229c-1.58,1.044-6.346,1.109-7.284,1.111c-0.465-0.02-0.806-0.27-0.959-0.638
			c-0.159-0.388-0.071-0.83,0.226-1.126c0.217-0.216,5.313-5.204,10.718-5.054c2.385,0.069,4.093,0.577,5.218,1.08
			c0.695-1.104,2.246-2.875,5.533-4.291c1.502-0.647,3.296-0.911,5.332-0.784c3.301,0.207,6.167,1.369,6.482,1.5
			c0.397,0.174,0.642,0.553,0.638,0.97c-0.005,0.418-0.261,0.792-0.656,0.947c-0.729,0.287-4.251,1.636-6.323,1.722
			c5.303,1.2,9.603,6.105,9.799,6.335c0.274,0.314,0.332,0.761,0.146,1.137c-0.198,0.383-0.568,0.599-0.972,0.573l-0.077-0.009
			c-1.013-0.077-6.373-0.548-8.044-1.842c-0.052-0.041-0.104-0.081-0.154-0.124c-0.214,0.255-0.529,0.394-0.861,0.373l-3.031-0.189
			c-0.19-0.013-0.372-0.078-0.526-0.186c-0.033,0.01-0.067,0.017-0.101,0.022c-0.04,0.01-0.181,0.034-0.401,0.062
			c8.793,7.425,11.494,24.149,11.611,24.9c0.073,0.457-0.173,0.909-0.592,1.101c-0.971,0.442-2.027,0.632-3.139,0.563
			c-1.728-0.108-3.027-0.808-3.271-0.948c-0.344-0.203-0.534-0.562-0.519-0.94c0.48-11.447-6.126-21.267-8.415-24.306
			c-1.237,1.938-2.949,3.052-3.032,3.105c-0.026,0.018-0.055,0.033-0.083,0.05c-0.035,0.182-0.12,0.353-0.251,0.497l-2.056,2.241
			c-0.208,0.229-0.51,0.352-0.825,0.331l-0.051-0.003c-0.01,0.066-0.019,0.132-0.028,0.198c-0.314,2.148-4.114,6.452-4.548,6.937
			c-0.268,0.308-0.715,0.425-1.107,0.288c-0.398-0.138-0.67-0.499-0.694-0.918c-0.018-0.344-0.384-8.374,3.808-12.803
			c0.534-0.567,1.083-1.081,1.639-1.545l-2.454-0.028l-0.043-0.013c-0.238-0.036-0.449-0.155-0.604-0.325
			C134.928,154.211,134.913,154.222,134.898,154.229z"/>
	</g>
</g>
</svg>
